<?xml version="1.0" standalone="no"?>
<!DOCTYPE svg PUBLIC "-//W3C//DTD SVG 20010904//EN"
 "http://www.w3.org/TR/2001/REC-SVG-20010904/DTD/svg10.dtd">
<svg version="1.0" xmlns="http://www.w3.org/2000/svg"
 width="923.000000pt" height="611.000000pt" viewBox="0 0 923.000000 611.000000"
 preserveAspectRatio="xMidYMid meet">

<g transform="translate(0.000000,611.000000) scale(0.100000,-0.100000)"
fill="#000000" stroke="none">
<path d="M4538 6096 c-92 -33 -88 -27 -434 -620 l-263 -451 78 -5 c87 -6 121
-22 151 -73 39 -63 17 -152 -47 -194 -22 -15 -56 -19 -192 -23 l-165 -5 -78
-133 c-43 -73 -78 -135 -78 -137 0 -3 71 -5 158 -5 150 0 159 -1 193 -24 90
-62 88 -171 -5 -240 -26 -20 -43 -21 -274 -24 l-247 -3 -65 -112 c-36 -61 -66
-117 -68 -124 -3 -10 28 -13 140 -13 124 0 147 -3 175 -20 92 -56 95 -179 6
-240 -36 -24 -41 -25 -271 -30 l-234 -5 -79 -135 -78 -135 502 -5 502 -5 38
-23 c46 -29 67 -68 67 -122 0 -52 -24 -95 -70 -123 -35 -22 -40 -22 -628 -27
l-593 -5 -69 -120 -70 -120 363 -5 c339 -5 364 -6 396 -25 53 -31 76 -69 76
-125 0 -56 -23 -94 -76 -125 -32 -19 -55 -20 -486 -23 l-452 -3 -35 -57 c-52
-87 -67 -131 -67 -195 0 -74 28 -134 84 -182 79 -67 37 -65 1108 -65 913 0
968 1 973 18 19 64 327 1179 375 1357 33 121 58 222 55 224 -7 7 -527 49 -782
62 -128 7 -237 16 -242 19 -6 4 146 500 371 1211 210 662 384 1210 386 1217 6
15 -2 15 -49 -2z"/>
<path d="M505 1441 c-94 -12 -160 -38 -214 -87 -57 -51 -83 -108 -84 -179 0
-142 103 -229 344 -290 138 -35 178 -61 179 -117 0 -42 -43 -86 -95 -93 -24
-4 -57 -4 -75 0 -49 11 -99 60 -111 112 l-12 44 -101 -6 c-55 -3 -116 -8 -134
-11 -33 -5 -34 -6 -27 -42 19 -109 97 -206 192 -242 163 -61 408 -39 521 46
49 37 59 49 89 113 51 106 28 228 -57 305 -56 50 -126 80 -274 117 -157 40
-176 50 -176 95 0 39 40 64 104 64 53 0 61 -3 92 -34 19 -19 34 -43 34 -55 0
-19 6 -21 68 -21 37 0 97 3 135 7 78 7 79 10 46 97 -27 73 -90 129 -173 155
-73 22 -189 32 -271 22z"/>
<path d="M7535 1439 c-248 -33 -388 -223 -372 -509 6 -112 33 -193 90 -272 70
-96 157 -141 304 -158 222 -25 382 46 458 203 19 41 35 81 35 90 0 12 -31 26
-114 51 -63 20 -118 36 -122 36 -5 0 -15 -19 -22 -42 -31 -98 -80 -132 -183
-126 -62 3 -72 7 -103 37 -43 42 -56 92 -56 218 0 117 11 162 51 208 37 41 86
59 149 53 59 -6 104 -37 131 -90 12 -24 25 -38 34 -35 7 3 61 16 120 29 104
22 106 23 100 48 -9 36 -52 106 -91 149 -81 90 -237 132 -409 110z"/>
<path d="M1143 1118 c5 -378 15 -426 105 -514 61 -60 141 -92 262 -103 300
-28 476 81 510 314 5 39 10 193 10 343 l0 272 -145 0 -145 0 0 -305 c0 -339
-3 -359 -62 -395 -23 -14 -50 -20 -91 -20 -66 0 -106 17 -133 57 -18 26 -19
53 -22 346 l-3 317 -145 0 -146 0 5 -312z"/>
<path d="M2210 970 l0 -460 120 0 120 0 2 331 3 330 85 -330 84 -331 106 0
106 0 84 331 85 332 3 -332 2 -331 120 0 120 0 0 460 0 460 -187 0 -188 0 -70
-275 c-38 -151 -73 -271 -76 -267 -4 4 -37 127 -74 275 l-68 267 -189 0 -188
0 0 -460z"/>
<path d="M3420 970 l0 -460 390 0 390 0 0 105 0 105 -245 0 -245 0 0 90 0 90
220 0 220 0 0 95 0 95 -220 0 -220 0 0 70 0 70 238 2 237 3 3 98 3 97 -386 0
-385 0 0 -460z"/>
<path d="M4350 970 l0 -460 365 0 365 0 0 110 0 110 -220 0 -220 0 0 350 0
350 -145 0 -145 0 0 -460z"/>
<path d="M5180 1330 l0 -100 227 -2 227 -3 -252 -264 -252 -265 0 -93 0 -93
440 0 441 0 -3 98 -3 97 -265 5 -264 5 257 270 257 269 0 88 0 88 -405 0 -405
0 0 -100z"/>
<path d="M6130 1133 c0 -324 8 -389 55 -470 32 -54 100 -109 165 -134 119 -45
351 -42 455 5 73 33 147 109 176 181 23 58 24 70 27 388 l3 327 -145 0 -145 0
-3 -326 -3 -326 -37 -34 c-35 -32 -42 -34 -108 -34 -66 0 -73 2 -108 34 l-37
34 -3 326 -3 326 -144 0 -145 0 0 -297z"/>
<path d="M8437 1423 c-3 -5 -68 -179 -145 -388 -78 -209 -152 -410 -166 -448
-14 -37 -26 -70 -26 -72 0 -3 64 -5 143 -5 l143 0 22 75 22 75 162 -2 162 -3
22 -70 22 -70 146 -3 c80 -1 146 -1 146 1 0 3 -61 170 -136 373 -74 203 -150
408 -167 456 l-32 88 -157 0 c-86 0 -159 -3 -161 -7z m208 -402 c25 -84 44
-155 42 -157 -2 -3 -47 -3 -99 -2 l-94 3 43 145 c50 167 52 174 57 169 2 -2
25 -73 51 -158z"/>
<path d="M6463 365 c-11 -8 -24 -26 -27 -40 -4 -14 -13 -25 -21 -25 -17 0 -20
-27 -4 -32 8 -3 7 -24 -5 -75 -20 -88 -20 -103 -2 -103 9 0 19 20 26 53 27
120 30 127 50 127 24 0 26 16 3 28 -21 12 -10 42 16 42 18 0 38 17 30 24 -15
13 -48 14 -66 1z"/>
<path d="M6075 348 c-41 -185 -52 -244 -45 -252 14 -14 27 2 34 41 13 72 14
73 62 73 43 0 44 0 74 -60 17 -33 37 -60 45 -60 21 0 19 7 -15 69 -35 63 -34
61 -16 61 30 0 69 45 69 80 0 53 -30 70 -124 70 -73 0 -79 -2 -84 -22z m173
-39 c5 -43 -21 -59 -94 -59 -35 0 -64 3 -64 8 0 4 5 24 11 45 l10 38 67 -3
c64 -3 67 -4 70 -29z"/>
<path d="M6347 355 c-7 -16 8 -29 23 -20 15 9 12 35 -4 35 -8 0 -16 -7 -19
-15z"/>
<path d="M6746 303 c-8 -38 -18 -86 -22 -108 -10 -61 -21 -77 -52 -73 -21 2
-28 9 -30 31 -4 30 -26 37 -36 10 -8 -20 23 -66 48 -71 30 -6 65 7 81 31 13
20 55 197 55 233 0 8 -6 14 -14 14 -10 0 -20 -23 -30 -67z"/>
<path d="M6985 308 c-9 -34 -19 -68 -22 -75 -6 -16 28 -18 44 -2 6 6 26 9 44
7 30 -3 34 -7 37 -36 4 -45 -21 -72 -65 -72 -26 0 -36 5 -40 20 -6 23 -43 27
-43 5 0 -25 47 -65 75 -65 60 0 115 55 115 115 0 53 -74 95 -109 63 -11 -11
-13 -9 -7 12 3 14 6 31 6 38 0 8 18 12 55 12 48 0 55 2 55 20 0 18 -7 20 -64
20 l-63 0 -18 -62z"/>
<path d="M7232 354 c-51 -36 -86 -156 -62 -214 47 -114 180 -17 183 134 1 41
-3 52 -27 72 -32 28 -62 30 -94 8z m82 -85 c-1 -33 -9 -73 -20 -95 -17 -34
-23 -39 -54 -39 -31 0 -35 3 -38 29 -6 49 8 113 30 141 16 20 28 25 52 23 31
-3 31 -3 30 -59z"/>
<path d="M7426 345 c-27 -25 -32 -55 -10 -62 6 -2 16 8 22 22 15 33 77 37 87
5 11 -34 -3 -55 -65 -103 -65 -51 -101 -103 -77 -113 8 -3 45 -4 83 -2 56 2
69 6 72 20 3 16 -5 18 -59 18 l-62 0 19 21 c10 11 40 36 65 55 71 52 82 110
27 148 -33 23 -71 20 -102 -9z"/>
<path d="M7662 354 c-51 -36 -86 -156 -62 -214 47 -114 180 -17 183 134 1 41
-3 52 -27 72 -32 28 -62 30 -94 8z m82 -85 c-1 -33 -9 -73 -20 -95 -17 -34
-23 -39 -54 -39 -31 0 -35 3 -38 29 -6 49 8 113 30 141 16 20 28 25 52 23 31
-3 31 -3 30 -59z"/>
<path d="M7882 354 c-45 -31 -82 -141 -68 -198 3 -14 16 -35 28 -46 68 -63
171 35 133 126 -16 38 -56 54 -87 35 -29 -18 -35 -5 -11 27 24 32 79 43 89 18
6 -17 34 -22 34 -7 0 4 -9 20 -21 35 -24 30 -63 34 -97 10z m56 -126 c17 -17
15 -49 -4 -76 -12 -17 -24 -22 -47 -20 -29 3 -32 6 -35 41 -2 21 2 45 9 53 14
17 61 18 77 2z"/>
<path d="M8085 358 c-19 -58 -36 -131 -30 -136 3 -3 15 -1 25 6 25 15 73 15
88 0 36 -36 -5 -98 -64 -98 -27 0 -37 5 -41 20 -3 11 -13 20 -23 20 -25 0 -15
-35 18 -60 49 -40 119 -13 148 57 29 67 -29 133 -91 105 -23 -10 -23 -10 -14
21 5 18 9 33 9 34 0 2 25 3 55 3 48 0 55 2 55 20 0 18 -7 20 -65 20 -44 0 -67
-4 -70 -12z"/>
<path d="M8366 351 c-9 -10 -32 -27 -51 -37 -48 -26 -48 -50 0 -30 42 18 41
21 16 -94 -18 -80 -15 -119 8 -95 8 10 61 236 61 263 0 17 -14 15 -34 -7z"/>
<path d="M8515 358 c-19 -58 -36 -131 -30 -136 3 -3 15 -1 25 6 25 15 73 15
88 0 36 -36 -5 -98 -64 -98 -27 0 -37 5 -41 20 -3 11 -13 20 -23 20 -25 0 -15
-35 18 -60 49 -40 119 -13 148 57 29 67 -29 133 -91 105 -23 -10 -23 -10 -14
21 5 18 9 33 9 34 0 2 25 3 55 3 48 0 55 2 55 20 0 18 -7 20 -65 20 -44 0 -67
-4 -70 -12z"/>
<path d="M8882 354 c-45 -31 -82 -141 -68 -198 3 -14 16 -35 28 -46 68 -63
171 35 133 126 -16 38 -56 54 -87 35 -29 -18 -35 -5 -11 27 24 32 79 43 89 18
6 -17 34 -22 34 -7 0 4 -9 20 -21 35 -24 30 -63 34 -97 10z m56 -126 c17 -17
15 -49 -4 -76 -12 -17 -24 -22 -47 -20 -29 3 -32 6 -35 41 -2 21 2 45 9 53 14
17 61 18 77 2z"/>
<path d="M6335 288 c-19 -52 -42 -185 -34 -192 6 -6 12 -6 18 0 11 12 50 191
43 199 -9 9 -22 5 -27 -7z"/>
<path d="M6547 294 c-14 -14 -7 -35 11 -32 9 2 17 10 17 17 0 16 -18 25 -28
15z"/>
<path d="M6807 213 c-4 -3 -7 -12 -7 -20 0 -9 16 -13 55 -13 48 0 55 2 55 20
0 17 -7 20 -48 20 -27 0 -52 -3 -55 -7z"/>
<path d="M8667 213 c-4 -3 -7 -12 -7 -20 0 -9 16 -13 55 -13 48 0 55 2 55 20
0 17 -7 20 -48 20 -27 0 -52 -3 -55 -7z"/>
<path d="M6507 115 c-7 -16 8 -29 23 -20 15 9 12 35 -4 35 -8 0 -16 -7 -19
-15z"/>
</g>
</svg>
